<?xml version="1.0" encoding="utf-8" ?>
<svg baseProfile="full" height="812" version="1.1" width="735" xmlns="http://www.w3.org/2000/svg" xmlns:ev="http://www.w3.org/2001/xml-events" xmlns:xlink="http://www.w3.org/1999/xlink"><defs /><path d="M-14.129640000000006,619.4215327999999 T-14.129640000000006,729.0415328 T-11.774700000000003,729.672944 T-11.774700000000003,753.9386790112359 T-19.845000000000006,760.122944 T-19.845000000000006,833.2029439999999 T99.22500000000002,833.2029439999999 T99.20070000000003,831.09824 T139.5765,831.09824 T176.62049999999996,748.07936 T97.99881712478435,726.9991579013226 T97.90199999999999,718.6135039999999 T67.66939775445519,710.5074785118846 T63.19706399999997,648.55297472 T-14.129640000000006,619.4215327999999 T-14.129640000000006,619.4215327999999 Z" fill="#333333" stroke="none" /><path d="M413.43749999999994,196.08175999999992 T344.1067682926829,200.16677073170726 T343.42875,194.47399999999993 T277.27874999999995,198.37159999999994 T250.81875000000008,323.09479999999985 T276.4954462699822,325.5016660746002 T270.11249999999995,405.1067999999998 T337.39082432432434,419.9721059459458 T337.80600000000004,423.45799999999997 T390.726,435.1508 T440.9999999999999,341.0237599999998 T397.341,287.52919999999995 T356.18556206896545,301.582624 T352.4264560975609,270.02045424390246 T413.43749999999994,196.08175999999992 T413.43749999999994,196.08175999999992 Z" fill="#F1F1F1" stroke="none" /><path d="M750.78486,579.9748976 T750.78486,521.5108975999999 T656.0757000000001,546.3113264 T682.2622800000001,627.4535119999998 T684.8322342411087,625.672816257965 T700.5147620576016,674.2669657331171 T687.8129999999999,695.3156 T667.38,702.0876800000001 T632.1000000000001,760.5516799999998 T720.3000000000002,806.1536000000001 T755.5799999999999,778.0908800000004 T755.5799999999999,672.8556799999999 T749.6999999999999,674.8044799999999 T749.6999999999999,592.7599999999999 T746.4204299999999,598.194716 T746.4204299999999,582.9989677538937 T750.78486,579.9748976 T750.78486,579.9748976 Z" fill="#F1F1F1" stroke="none" /><path d="M677.67,262.16231999999985 T567.42,231.71231999999986 T567.42,312.7441199999999 T565.95,312.6199999999999 T565.95,385.6999999999998 T663.268780487805,383.5497183739836 T663.3375000000001,384.01509999999996 T751.5375000000001,382.06629999999984 T751.5375000000001,355.37856666666664 T753.375,355.8589999999999 T753.375,285.70219999999983 T678.0749999999999,264.90505714285695 T677.67,262.16231999999985 T677.67,262.16231999999985 Z" fill="#333333" stroke="none" /><path d="M755.5800000000002,399.72439999999983 T755.5800000000002,355.4935999999998 T645.3300000000002,357.9295999999998 T645.2750000000001,358.28809523809514 T574.4128521126761,359.8538112676055 T539.4899999999999,351.49449999999985 T532.8750000000001,460.74909999999994 T599.025,475.3650999999999 T599.025,419.30941818181816 T631.5667226277372,431.0751527007299 T624.75,475.50719999999995 T757.0500000000001,504.73920000000004 T757.0500000000001,399.50399999999985 T755.5800000000002,399.72439999999983 T755.5800000000002,399.72439999999983 Z" fill="#F1F1F1" stroke="none" /><path d="M113.979682713348,278.42271772428876 T50.935500000000005,236.9968159999999 T50.9355,292.35247999999996 T40.79250000000002,294.5936 T40.79250000000002,348.02969599999994 T140.0175,369.9536959999999 T142.09978695652174,367.7682862608695 T242.55,389.9629999999999 T242.55,305.921 T231.52500000000003,303.485 T231.52500000000003,247.45699999999994 T187.425,293.74099999999993 T176.40000000000003,291.30499999999995 T169.2272026456516,298.83302160427803 T132.07950000000005,274.42351999999994 T113.979682713348,278.42271772428876 T113.979682713348,278.42271772428876 Z" fill="#333333" stroke="none" /><path d="M539.310590551181,230.59904881889753 T515.003503937008,223.8856629921259 T510.82500000000005,211.0063199999999 T422.625,186.64631999999995 T422.625,313.3183199999999 T502.005,333.4883999999999 T508.60507031249995,321.83240643749997 T514.9995703125,323.4572184375 T518.1750000000001,333.24479999999994 T606.375,355.65599999999995 T606.375,233.85599999999988 T553.4549999999999,219.2399999999999 T539.310590551181,230.59904881889753 T539.310590551181,230.59904881889753 Z" fill="#FF3333" stroke="none" /><path d="M612.1473960000001,481.84339839999996 T591.941391514979,507.6081773883596 T568.2284999999999,493.06264 T529.537789969308,533.8161945961948 T463.18964999999986,503.0242559999999 T421.91204999999985,535.997952 T487.71774490278244,577.8659287179518 T479.5875,586.4296480000002 T538.1523,623.6907040000001 T545.4070266830065,614.4401651442266 T633.0554999999998,670.2053119999999 T626.0490697072808,581.6384139078152 T687.6289559999999,565.5131776 T693.7606199999999,517.39652608 T612.1473960000001,481.84339839999996 T612.1473960000001,481.84339839999996 Z" fill="#F1F1F1" stroke="none" /><path d="M283.3425,67.35539999999999 T294.3211863302751,66.27018849908256 T310.7947499999999,102.70683499999987 T317.51809481582535,108.29730106525685 T333.837,144.39187 T394.69500000000005,158.47195 T360.98885928251804,130.44526967440885 T394.54649949242116,86.46903684802332 T464.70375,130.89439999999996 T464.70375,85.29247999999995 T385.32375,34.62368000000001 T378.2996365030675,35.31799337423313 T349.49250000000006,16.930200000000006 T318.1239915644172,40.8419658588957 T284.3347499999999,44.18193500000001 T291.8721573672805,60.85336404117014 T283.3425,67.35539999999999 T283.3425,67.35539999999999 Z" fill="#FF3333" stroke="none" /><path d="M587.4119999999999,195.85439999999986 T601.524,137.39039999999991 T495.6840000000001,122.77439999999999 T489.0036463262765,174.43580174346198 T461.06550000000004,161.0038111111111 T461.06550000000004,149.1562799999999 T400.2075000000001,135.07619999999994 T340.6725,184.18595999999997 T361.84050000000013,231.00588 T447.6537692307694,225.94970769230767 T513.3240000000001,244.08719999999988 T513.5064827586208,242.6759999999999 T569.772,258.2159999999999 T584.7701408450704,196.08084507042238 T587.4119999999999,195.85439999999986 T587.4119999999999,195.85439999999986 Z" fill="#F1F1F1" stroke="none" /><path d="M517.3459199999998,-25.529279999999993 T475.00991999999985,-25.529279999999993 T436.90751999999986,81.34291199999987 T475.00991999999997,127.64639999999997 T484.8163616497054,121.50403187145147 T508.03200000000004,149.71656 T546.9557093247588,155.09173890675237 T551.0735999999999,163.69919999999996 T593.4096000000001,169.54559999999992 T614.5776,81.84960000000005 T563.7744,29.232000000000056 T558.6096545994063,32.46699273986171 T563.0687999999999,21.826560000000036 T517.3459199999998,-25.529279999999993 T517.3459199999998,-25.529279999999993 Z" fill="#F1F1F1" stroke="none" /><path d="M66.14999999999998,-19.020287999999994 T-13.230000000000004,-19.020287999999994 T-13.230000000000004,51.73414399999999 T-19.845000000000006,50.343999999999994 T-19.845000000000006,138.03999999999996 T-17.199000000000005,137.6274540307692 T-17.199000000000005,174.8255488 T35.44989344262298,171.72344257049178 T33.07500000000003,178.69196799999997 T152.145,171.67628799999994 T152.145,78.91340799999996 T72.76500000000001,62.23167999999998 T70.35616489693943,69.29979866583383 T66.15,68.41587199999998 T66.14999999999998,-19.020287999999994 T66.14999999999998,-19.020287999999994 Z" fill="#333333" stroke="none" /><path d="M164.40547496497325,677.2335983310013 T144.09951359999985,632.50044928 T67.95821759999998,674.2016511999997 T69.68287078026549,687.9438519930391 T68.58431999999999,688.0680647679997 T76.03545600000004,747.4394260479999 T170.233056,772.695874048 T192.45945599999996,722.884546048 T171.37895039999998,676.4451097599999 T164.40547496497325,677.2335983310013 T164.40547496497325,677.2335983310013 Z" fill="#FF3333" stroke="none" /><path d="M331.05890370609075,702.5181865420559 T291.0893999999999,696.5254799999998 T302.10135488401784,738.0912398638009 T299.43899999999996,737.0930000000001 T323.25299999999993,826.9813999999999 T395.88271923743486,826.9813999999999 T400.28099999999995,835.4262000000001 T463.78499999999997,835.4262000000001 T419.68500000000006,708.7542000000001 T327.07500000000005,694.8690000000001 T331.05890370609075,702.5181865420559 T331.05890370609075,702.5181865420559 Z" fill="#333333" stroke="none" /><path d="M459.3015,288.1195239999999 T459.3015,186.69504 T393.1514999999999,190.59263999999996 T349.4925,243.50255999999996 T351.57258848167544,247.12044087958114 T322.812,281.97512 T330.75000000000006,348.62408 T396.93733217821784,326.0229684752475 T401.0895,333.2448 T422.625,325.8910327272727 T422.625,354.8033999999999 T524.0550000000001,379.4069999999999 T524.1700434782609,378.46013739130433 T607.845,398.48900000000003 T607.845,325.409 T497.595,297.395 T497.54140625,297.83610208333323 T459.3015,288.1195239999999 T459.3015,288.1195239999999 Z" fill="#F1F1F1" stroke="none" /><path d="M571.83,463.65199999999993 T626.9633634752477,475.83384792976887 T606.4044000000001,502.04868672 T662.3613527034307,526.4251858526503 T656.0756999999999,575.750224 T750.78486,550.9497951999999 T750.78486,472.99779520000004 T671.4048599999999,455.4585951999999 T670.8761910937853,459.60718806643627 T663.8776213770492,458.0608374242622 T668.85,425.6503999999999 T571.83,390.572 T571.83,463.65199999999993 T571.83,463.65199999999993 Z" fill="#333333" stroke="none" /><path d="M453.12749999999994,331.0303347826085 T453.12749999999994,276.5671999999999 T380.36249999999995,301.41439999999994 T416.38324453924906,345.54994776791796 T374.85,423.31183999999996 T424.09499999999997,434.1926399999999 T424.09499999999997,437.9927999999999 T512.2950000000001,457.48079999999993 T512.424705882353,456.4132588235294 T553.8225000000001,465.5602 T560.4374999999999,356.3055999999999 T500.90250000000003,342.05499999999995 T500.83593750000006,342.60284107142843 T453.12749999999994,331.0303347826085 T453.12749999999994,331.0303347826085 Z" fill="#333333" stroke="none" /><path d="M463.49100000000004,180.8575719999999 T463.49100000000004,180.55722222222224 T518.616,207.05999999999995 T529.2,125.21039999999999 T463.49100000000004,116.1363 T463.49100000000004,112.45469199999994 T378.1575000000001,58.419340000000005 T328.5449999999999,123.4349619999999 T372.204,159.73745199999996 T463.49100000000004,180.8575719999999 T463.49100000000004,180.8575719999999 Z" fill="#FF3333" stroke="none" /><path d="M149.87109375000006,136.27958399999994 T110.18109374999999,138.61814399999994 T44.03109375,191.23574399999995 T44.03109375,244.67183999999997 T51.34342499999998,240.63100330118377 T51.34342499999998,258.23914199999996 T89.37967499999988,283.2325019999999 T105.59091623142507,282.2418793661796 T115.43174999999995,288.7082239999999 T118.56457987565838,286.6816798320846 T151.2009843750001,284.68736239999987 T182.291484375,264.57574639999996 T188.07960937500005,190.95982639999986 T174.13788551341096,172.77407156632452 T176.74453125000002,171.33362399999993 T149.87109375000006,136.27958399999994 T149.87109375000006,136.27958399999994 Z" fill="#F1F1F1" stroke="none" /><path d="M316.23375,523.69534 T332.7712500000001,571.1973400000002 T352.17829123263897,578.8266955787038 T357.2062569444445,593.2689285185186 T356.034,594.2053600000002 T377.4608578125,655.7514582500002 T375.57765000000006,663.6573440000001 T397.62765,726.993344 T459.41175,679.959056 T405.4199197965178,620.7345652732855 T413.251269375,587.8578139000002 T469.48125000000005,542.93974 T449.63625,485.93733999999995 T407.19000000000017,469.25073999999995 T316.23375,523.69534 T316.23375,523.69534 Z" fill="#333333" stroke="none" /><path d="M285.19126044568253,284.25518885793866 T303.1875,199.42719999999997 T230.8635,203.68857599999998 T230.8635,197.10487999999992 T219.66583768656704,204.3483493731343 T203.96250000000003,205.2736 T203.96250000000003,214.5064200851063 T168.68249999999995,237.32811199999998 T169.17641974606641,239.94134515830538 T98.89424999999997,285.40500799999995 T174.96675,335.39172799999994 T202.30874999999997,306.69564799999995 T202.30874999999997,388.5419999999999 T301.53374999999994,410.4659999999999 T311.45624999999995,286.71719999999993 T285.19126044568253,284.25518885793866 T285.19126044568253,284.25518885793866 Z" fill="#F1F1F1" stroke="none" /><path d="M194.77499999999992,636.03453312 T159.49499999999992,566.85213312 T91.15713299684539,560.8123673505783 T90.63314399999996,556.6371731199999 T-19.61685599999999,546.8931731199998 T-19.61685599999999,656.5131731199998 T31.93427999999988,675.9341343999998 T41.62983109922753,667.1508884899185 T42.79659202448178,667.5904446376702 T48.340656000000024,744.3914508799998 T104.859216,759.5453196799998 T95.82606901960784,687.5683442405227 T98.80634400000001,688.6911091199999 T94.36992613559293,653.3413090604173 T144.01413599999967,663.8353344000001 T194.77499999999992,636.03453312 T194.77499999999992,636.03453312 Z" fill="#333333" stroke="none" /><path d="M-18.007499999999986,434.70419999999996 T-18.007499999999986,507.7841999999999 T8.843534547724756,489.19879587339983 T12.451818750000008,512.0739959999999 T13.385128673829557,511.93166381454307 T18.41965125000003,543.8486928 T69.97172667559298,550.4995190556822 T68.43768749999997,551.698784 T142.75721249999992,561.28688 T182.9984624999999,513.5412799999999 T171.09146249999992,471.44719999999995 T140.468503461239,495.3872934805143 T135.8436187499999,472.3452719999999 T134.05877749674954,472.617464923039 T125.7976387499999,431.45896079999983 T71.77513874999994,432.3115607999999 T70.33267368749982,433.309987735 T-18.007499999999986,434.70419999999996 T-18.007499999999986,434.70419999999996 Z" fill="#333333" stroke="none" /><path d="M237.86069999999987,744.4318559999999 T191.17349999999985,652.8804799999999 T158.13402499999987,726.9248653333335 T150.71174999999997,725.5220000000002 T122.92875000000006,787.7861599999999 T128.39862000000002,790.5995775999999 T115.76250000000002,818.9182400000001 T183.45600000000005,818.9182400000001 T203.63175000000004,829.2956000000001 T253.24424999999994,829.2956000000001 T252.36224999999988,827.56604 T280.8067499999999,827.56604 T238.4707499999999,744.54716 T237.86069999999987,744.4318559999999 T237.86069999999987,744.4318559999999 Z" fill="#333333" stroke="none" /><path d="M333.32176499999986,388.1764376 T280.7699999999999,376.56499999999994 T299.01714062499997,428.97773916666677 T286.09875,444.3426400000002 T299.88,483.9276400000001 T324.8405875798609,486.97981488462966 T312.83437499999997,491.34119999999996 T329.3718749999999,538.8431999999999 T402.90935872395823,494.8251266256313 T444.8587499999999,511.31639999999993 T433.8987430555554,479.8350848148148 T443.7562499999999,476.25424 T417.2962499999999,400.25104 T337.9162499999999,382.71183999999994 T333.32176499999986,388.1764376 T333.32176499999986,388.1764376 Z" fill="#FF3333" stroke="none" /><path d="M224.35874999999987,362.4767999999999 T92.05874999999992,333.24479999999994 T112.98887909836067,407.23778972677604 T111.62812499999995,407.3398000000001 T131.47312499999998,477.49660000000017 T235.6930107394366,493.4749568262912 T236.74349999999998,496.82220000000007 T290.766,505.1046 T290.82486904186794,501.51696258507786 T344.2556249999999,509.70864000000006 T322.2056249999998,446.3726399999998 T291.92748841207344,434.3203787534557 T291.97874999999993,431.1963599999999 T239.3510733763132,410.2478281897484 T224.35874999999987,362.4767999999999 T224.35874999999987,362.4767999999999 Z" fill="#FF3333" stroke="none" /><path d="M652.8916800000001,646.8953254400001 T600.1833600000001,613.36037504 T562.9738535773342,685.9784223610384 T557.8650000000001,682.3853120000001 T525.9859920000001,744.6003622400001 T527.0925985172349,751.1842421995219 T501.8328630000001,730.3292835999996 T470.96683200000007,828.33414328 T513.3028320000001,828.33414328 T513.7026992848445,827.55376256 T539.9286479999998,827.55376256 T541.6714799999999,837.9229376000001 T579.7738800000001,837.9229376000001 T615.3402426994086,765.0801885781291 T619.890768,768.2806208000002 T627.571158144153,740.0302977141399 T630.704088,733.6138073600002 T629.5384780635716,732.7940216534591 T652.8916800000001,646.8953254400001 T652.8916800000001,646.8953254400001 Z" fill="#333333" stroke="none" /><path d="M176.39999999999998,-7.7302399999999984 T152.145,-7.7302399999999984 T152.145,-21.10550399999999 T80.70299999999999,-21.10550399999999 T71.02449590163934,-9.510144 T44.981999999999985,-9.510144 T44.98199999999999,21.690144000000004 T33.07499999999999,35.955360000000006 T33.07500000000002,93.01622399999997 T92.61000000000001,105.52751999999995 T107.49375000000002,94.74091199999995 T142.22250000000003,102.03916799999995 T142.22250000000003,69.57215999999997 T152.145,62.381087999999984 T152.145,13.527919999999984 T176.39999999999998,-7.7302399999999984 T176.39999999999998,-7.7302399999999984 Z" fill="#F1F1F1" stroke="none" /><path d="M750.876,214.69929599999986 T758.1084,210.70425599999987 T758.1084,158.0866559999999 T649.0931999999999,130.3747199999999 T619.4579999999999,178.958304 T634.5825085155574,198.24822562611772 T580.65,269.2023599999999 T622.9860000000001,280.89515999999986 T634.1874,274.7077199999999 T658.5600000000001,281.4391999999999 T655.6200000000001,287.9351999999999 T750.876,314.2439999999998 T750.876,214.69929599999986 T750.876,214.69929599999986 Z" fill="#FF3333" stroke="none" /><path d="M167.94749999999993,490.2563679999999 T150.0869999999999,427.1152479999999 T96.06449999999992,427.96784799999983 T116.62061249999996,530.3821599999999 T167.94749999999993,490.2563679999999 T167.94749999999993,490.2563679999999 Z" fill="#FF3333" stroke="none" /><path d="M211.31249999999991,571.4044 T128.62499999999991,564.0964 T166.39696132596674,638.165417495396 T163.5374999999999,638.4959 T198.81749999999988,707.6782999999999 T249.62619688385251,715.2961481586402 T251.1862499999998,718.7012 T328.3612499999999,730.2722000000001 T294.82710104812514,651.414481566775 T296.7562499999999,651.1915200000001 T265.8862499999999,578.59872 T212.06020066889621,573.8415224972128 T211.31249999999991,571.4044 T211.31249999999991,571.4044 Z" fill="#333333" stroke="none" /><path d="M74.41875000000002,188.78999999999994 T126.78750000000001,147.13439999999994 T27.5625,152.98079999999996 T54.911850000000015,191.65538559999996 T40.51687500000002,203.10555999999997 T33.075,195.66601599999996 T-16.5375,235.12921599999999 T-16.5375,280.54599999999994 T-16.5375,308.2092159999999 T-16.5375,329.26599999999996 T82.6875,351.18999999999994 T82.6875,325.4171199999999 T82.6875,297.7539039999999 T82.6875,245.26297599999987 T74.41875000000002,236.9968159999999 T74.41875000000002,188.78999999999994 T74.41875000000002,188.78999999999994 Z" fill="#333333" stroke="none" /><path d="M600.3626999999999,-21.924000000000007 T571.8888000000001,-21.924000000000007 T527.4359999999999,30.69359999999999 T603.6408,109.62000000000003 T607.8721673387097,92.09004959677412 T633.57,112.36049999999996 T639.5614683014354,105.74942619617222 T678.0375,136.09931999999992 T702.9833293269231,135.27254394230758 T705.7470000000001,141.53159999999986 T749.847,140.06999999999988 T749.847,52.37400000000004 T717.2802687861271,19.993364393063622 T723.9749999999999,12.606300000000047 T688.695,-22.472099999999998 T600.4949999999999,-22.472099999999998 T600.3626999999999,-21.924000000000007 T600.3626999999999,-21.924000000000007 Z" fill="#333333" stroke="none" /><path d="M242.54999999999998,-21.176959999999987 T163.16999999999996,-21.176959999999987 T110.25,25.204479999999997 T110.25,94.77663999999999 T189.63000000000002,105.88479999999993 T195.10521739130436,98.3036228019323 T202.08825000000002,99.28080399999993 T202.08825000000002,143.86609999999993 T255.0082500000001,194.53489999999996 T258.4100204453442,192.4571202105263 T305.39250000000004,237.44098000000002 T404.61750000000006,231.59458 T379.2158999999999,175.41067600000002 T303.7214856168618,136.63907578655025 T264.9307500000001,36.8039 T237.56764395538136,39.50866416641545 T242.54999999999998,32.609920000000024 T242.54999999999998,-21.176959999999987 T242.54999999999998,-21.176959999999987 Z" fill="#FF3333" stroke="none" /><path d="M548.3732936641727,607.7765877114095 T514.995978,607.0021162240001 T453.21187800000007,654.036404224 T481.50726889738525,687.9121703649935 T474.4325040000001,696.3909218560001 T478.89787314240294,701.736944512122 T457.02226500000023,716.9430251199998 T543.7202190000003,788.5226439999998 T564.9728910000001,747.0459438399997 T557.0878226329265,737.6057939238021 T572.5018771765589,707.5237356039767 T585.4000992000001,703.766896 T625.2488592000001,625.9980832 T590.1099792,603.6414496 T552.5508912,602.76994624 T548.3732936641727,607.7765877114095 T548.3732936641727,607.7765877114095 Z" fill="#FF3333" stroke="none" /><path d="M292.49325000000005,166.27729999999994 T307.1290555567271,157.3378428917006 T373.85774999999995,191.60763999999998 T347.2770252425137,132.81571791536624 T350.04375,131.12582 T307.70774999999986,37.485979999999984 T244.86525000000012,43.697779999999966 T282.2808125276917,139.99369196721307 T278.20485,142.48326399999996 T284.5053758220703,145.71901952315807 T292.49325000000005,166.27729999999994 T292.49325000000005,166.27729999999994 Z" fill="#333333" stroke="none" /><path d="M306.25612499999994,462.33250000000004 T320.03737499999994,501.91749999999996 T398.0943750000002,473.56245999999993 T306.25612499999994,462.33250000000004 T306.25612499999994,462.33250000000004 Z" fill="#333333" stroke="none" /><path d="M698.544,102.48739199999991 T663.3003548387096,103.65546709677413 T665.91,101.09399999999988 T577.71,104.01719999999992 T557.6705806451613,187.03765161290332 T553.602,191.03112000000013 T535.9620000000001,264.1111199999999 T599.466,281.65031999999985 T671.7899999999998,186.50016000000002 T658.0145628426395,168.93085499695442 T698.544,102.48739199999991 T698.544,102.48739199999991 Z" fill="#333333" stroke="none" /><path d="M588.9434616492147,440.18903609773105 T561.2460000000001,434.06921599999987 T520.1101914814815,466.92964501728386 T492.53819999999996,434.7285599999999 T391.461,447.4737120000001 T407.337,493.0756319999999 T421.22183055555547,499.26340281481475 T439.7505,552.4848000000001 T475.88140541666667,523.6224269111111 T485.394,527.861712 T515.9587827554745,503.44571264720196 T522.2055715274198,507.2775059813097 T519.939,509.5559840000001 T593.2332,554.5148 T672.1722,453.8592799999999 T592.7922,436.32007999999985 T588.9434616492147,440.18903609773105 T588.9434616492147,440.18903609773105 Z" fill="#F1F1F1" stroke="none" /><path d="M367.5204166666665,582.4656444444444 T360.7318749999999,562.9663666666668 T367.3162499999999,550.4548000000001 T339.7537499999999,471.2848 T285.73125,463.00239999999997 T258.16875,498.9334000000001 T277.7960426678989,576.0801428186485 T234.17099999999994,572.2245199999999 T272.7585,662.9655200000001 T349.30438963210696,680.382546265329 T350.5215,682.1936800000002 T417.1125,697.3456000000001 T377.42249999999996,583.3408 T367.5204166666665,582.4656444444444 T367.5204166666665,582.4656444444444 Z" fill="#F1F1F1" stroke="none" /><path d="M345.0825,-10.555999999999987 T292.1624999999999,-10.555999999999987 T358.31249999999994,31.667999999999974 T361.6199999999999,42.22399999999993 T423.36,81.63306666666664 T423.36,143.2368 T529.2,157.85279999999997 T460.88822473282437,74.83772834198456 T493.9199999999999,-17.81203199999998 T460.845,-17.81203199999998 T460.845,-21.111999999999988 T341.775,-21.111999999999988 T345.0825,-10.555999999999987 T345.0825,-10.555999999999987 Z" fill="#FF3333" stroke="none" /><path d="M276.01887646368203,493.63321493339913 T276.27179999999987,475.24736 T229.47413309333314,468.0726273166222 T231.70874999999984,465.08111999999994 T134.46825,450.17280000000005 T154.8505056,522.2289264639999 T148.61700000000002,530.5737919999999 T168.46200000000005,600.730592 T247.35366234061928,607.7031122525804 T247.3275,609.6049399999999 T306.86249999999995,614.8666999999999 T276.01887646368203,493.63321493339913 T276.01887646368203,493.63321493339913 Z" fill="#F1F1F1" stroke="none" /><path d="M588.0,45.674999999999926 T565.9499999999999,137.02499999999995 T698.25,132.6401999999999 T588.0,45.674999999999926 T588.0,45.674999999999926 Z" fill="#333333" stroke="none" /><path d="M-11.759999999999987,303.62141599999995 T-11.759999999999987,377.2588457142857 T-21.608999999999966,370.475 T-21.608999999999966,461.82499999999993 T80.29212912,460.2167644928 T84.99539999999986,463.4563079999999 T171.43139999999988,462.09214799999984 T155.55539999999985,405.9667079999997 T150.80384515378202,404.1948902960374 T132.8291999999999,340.65024000000005 T57.97815292035391,324.1117229309735 T58.79999999999994,319.21181599999994 T-11.759999999999987,303.62141599999995 T-11.759999999999987,303.62141599999995 Z" fill="#333333" stroke="none" /><path d="M529.4976750000001,703.54307632 T473.93608500000005,637.02371152 T430.8744863733498,669.8051493259447 T427.7483910000001,667.11484 T386.558991,698.4710319999999 T414.121491,777.6410319999998 T473.18641748267396,736.5840690416538 T477.10863900000004,739.9595224 T529.4976750000001,703.54307632 T529.4976750000001,703.54307632 Z" fill="#FF3333" stroke="none" /><path d="M223.24956818181803,362.0693236363636 T192.68024999999983,355.3149599999999 T213.62774999999993,422.0613599999999 T247.54146666666657,435.5607697777777 T248.1359999999999,437.35944 T334.79249999999985,471.85319999999984 T301.7174999999999,376.84919999999994 T222.33749999999986,359.31 T223.24956818181803,362.0693236363636 T223.24956818181803,362.0693236363636 Z" fill="#F1F1F1" stroke="none" /><path d="M592.3365,629.865152 T549.1171150844347,602.3674072518846 T558.7102500000001,595.0644560000001 T500.14545,557.8034000000001 T455.73675000000003,673.454936 T515.3429304198278,628.0786295320554 T592.3365,629.865152 T592.3365,629.865152 Z" fill="#333333" stroke="none" /><path d="M590.94,-8.7696 T495.68399999999986,-8.7696 T546.4871999999999,43.848 T590.94,-8.7696 T590.94,-8.7696 Z" fill="#FF3333" stroke="none" /><path d="M303.92249999999996,479.20179999999993 T249.89999999999986,470.9194 T248.79749999999996,551.0638000000002 T303.92249999999996,479.20179999999993 T303.92249999999996,479.20179999999993 Z" fill="#FF3333" stroke="none" /><path d="M-11.024999999999999,481.0612799999998 T-11.024999999999999,590.6812799999998 T55.12500000000001,596.5276799999998 T53.02845946166396,583.2363809505165 T121.60942499999996,589.2976319999999 T161.8506749999999,541.5520319999999 T44.05613748804921,526.3551462026245 T32.19299999999996,451.14719999999977 T-11.024999999999999,481.0612799999998 T-11.024999999999999,481.0612799999998 Z" fill="#FF3333" stroke="none" /><path d="M611.58762,508.6848703999999 T564.2242200000001,569.0781824000001 T590.7455205391215,576.9591979466784 T593.3601975774491,610.0108126952308 T592.2236039999999,610.3788279680001 T595.8433319999998,656.1350929280001 T650.7478319999999,691.0673329280002 T652.8252739991776,688.5029833089892 T692.40675,713.6861580799999 T720.6307500000001,666.9149580799997 T706.2966498484193,622.4990696780567 T712.9270680000001,614.3146244479998 T700.3575096000001,575.3663753599999 T696.299037989842,576.6804594497506 T684.5030304000001,540.1291481599999 T615.5044726332436,558.1970290196458 T611.58762,508.6848703999999 T611.58762,508.6848703999999 Z" fill="#F1F1F1" stroke="none" /><path d="M209.47499999999997,123.91119999999992 T209.47499999999997,125.63263999999995 T167.304375,128.11735999999993 T166.29799555352392,140.91693651595742 T126.78750000000005,143.24491999999998 T162.4566973747091,189.77225657690587 T155.72812499999998,275.34919999999994 T215.72152052238792,236.54107104477612 T330.75000000000006,229.76352000000003 T264.6,166.42751999999996 T251.9771739130435,164.60534492753618 T233.45437499999997,146.8704999999999 T233.45437499999997,124.21975999999995 T211.1686956521739,125.53284637681153 T209.47499999999997,123.91119999999992 T209.47499999999997,123.91119999999992 Z" fill="#F1F1F1" stroke="none" /><path d="M258.40622385620884,695.3671549237472 T190.36499999999984,685.1656 T216.28546623093658,735.9943999709513 T206.82899999999984,745.11556 T227.99699999999984,786.6249999999998 T231.2671180413872,785.8310457592536 T252.2519999999999,826.9813999999999 T358.0919999999999,826.9813999999999 T340.1843070773822,759.386965444468 T341.775,759.0007599999999 T325.89899999999994,699.0751599999999 T264.1589999999999,689.8183599999998 T258.40622385620884,695.3671549237472 T258.40622385620884,695.3671549237472 Z" fill="#333333" stroke="none" /><path d="M479.38316999999984,540.0938748799999 T444.24428999999986,517.73724128 T398.38029000000006,554.3746812799999 T389.80725000000007,590.3651196800002 T395.6794110787468,610.6572333379847 T392.1210299999999,625.5956560000002 T403.6674640765099,638.2611217809097 T407.127966,650.2193936 T407.61710564849426,649.8365553086605 T412.87625399999996,668.0103136000001 T440.6945339999999,698.5246240000001 T481.883934,667.168432 T508.5291540000001,597.7775104000001 T491.05673399999984,557.8797279999999 T488.163722584961,560.1440211325819 T479.38316999999984,540.0938748799999 T479.38316999999984,540.0938748799999 Z" fill="#333333" stroke="none" /><path d="M-16.5375,142.7496 T-16.5375,264.5496 T82.6875,185.62319999999994 T49.61249999999999,138.85199999999995 T-16.5375,142.7496 T-16.5375,142.7496 Z" fill="#333333" stroke="none" /><path d="M175.04054399999998,747.4297599999999 T208.3801439999999,672.7127679999999 T173.10014399999994,603.530368 T122.33927999999989,631.3311692799999 T175.04054399999998,747.4297599999999 T175.04054399999998,747.4297599999999 Z" fill="#F1F1F1" stroke="none" /><path d="M429.86541150000005,834.29911152 T493.3694115000002,834.29911152 T524.2354425000002,736.2942518399996 T480.8864655000003,700.5044423999998 T402.30291150000005,755.1291115199999 T429.86541150000005,834.29911152 T429.86541150000005,834.29911152 Z" fill="#333333" stroke="none" /><path d="M91.87499999999994,592.4351999999999 T202.125,602.1792 T172.3574999999999,496.94399999999985 T91.87499999999994,592.4351999999999 T91.87499999999994,592.4351999999999 Z" fill="#F1F1F1" stroke="none" /><path d="M312.4484999999999,-15.98015999999999 T275.4878597560976,-15.98015999999999 T275.625,-16.8084 T209.475,-16.8084 T209.475,84.04199999999997 T259.749,79.07255999999995 T260.0975554649266,76.96750629690047 T305.83349999999996,72.44664 T371.98350000000005,22.021440000000013 T312.4484999999999,-15.98015999999999 T312.4484999999999,-15.98015999999999 Z" fill="#FF3333" stroke="none" /><path d="M749.6999999999999,-14.616000000000007 T661.5,-14.616000000000007 T749.6999999999999,73.08000000000001 T749.6999999999999,-14.616000000000007 T749.6999999999999,-14.616000000000007 Z" fill="#333333" stroke="none" /><path d="M668.0289512195125,749.895974321951 T706.637232,685.9165376000001 T627.5747520000001,635.6141120000002 T594.57384,756.9994073600003 T597.1681826087672,758.8240357558896 T562.7160000000001,829.3848550399999 T619.8696000000001,829.3848550399999 T621.5404608,826.6160000000001 T682.0800000000004,826.6160000000001 T685.7550000000006,823.6927999999999 T749.7,823.6927999999999 T749.7,753.5360000000002 T720.3000000000003,776.9216 T668.0289512195125,749.895974321951 T668.0289512195125,749.895974321951 Z" fill="#FF3333" stroke="none" /><path d="M415.64250000000004,146.39953999999994 T324.3554999999999,125.27941999999999 T356.10749999999996,195.50929999999997 T415.64250000000004,146.39953999999994 T415.64250000000004,146.39953999999994 Z" fill="#F1F1F1" stroke="none" /><path d="M330.27225000000004,649.7299200000002 T263.68125,634.5780000000002 T302.2687499999999,725.3190000000002 T379.4437499999999,736.8900000000001 T378.91294872423924,735.9491159175661 T432.6577500000001,744.0071799999998 T406.1977499999999,668.00398 T330.9183160535116,650.8751193311036 T330.27225000000004,649.7299200000002 T330.27225000000004,649.7299200000002 Z" fill="#333333" stroke="none" /><path d="M582.4140000000001,444.3263999999999 T439.52999999999986,412.7558399999999 T497.39086055555555,480.3310273481481 T448.9232999999999,519.0482639999999 T539.8134,561.23004 T584.1339,514.546536 T533.4381611770074,483.44966348175177 T582.4140000000001,444.3263999999999 T582.4140000000001,444.3263999999999 Z" fill="#F1F1F1" stroke="none" /><path d="M119.07000000000002,57.97679999999997 T119.07000000000002,173.93039999999993 T198.45,169.2532799999999 T198.07502772643252,167.78129360443617 T233.73,165.68047999999993 T233.73,76.03567999999994 T172.5219455252918,67.47043859922175 T171.98999999999998,65.38223999999992 T119.07000000000002,57.97679999999997 T119.07000000000002,57.97679999999997 Z" fill="#F1F1F1" stroke="none" /><path d="M67.01906400000004,624.3721344000002 T74.47020000000002,683.7434956799997 T150.6114959999997,642.0422937600001 T67.01906400000004,624.3721344000002 T67.01906400000004,624.3721344000002 Z" fill="#333333" stroke="none" /><path d="M511.28952000000004,574.9577120000002 T458.58119999999985,541.4227616000001 T493.5260400000002,621.2183264000001 T511.28952000000004,574.9577120000002 T511.28952000000004,574.9577120000002 Z" fill="#333333" stroke="none" /><path d="M474.2807999999999,422.79215999999985 T379.0247999999999,401.74511999999993 T402.8388,470.148 T503.91599999999994,457.40284799999984 T474.2807999999999,422.79215999999985 T474.2807999999999,422.79215999999985 Z" fill="#F1F1F1" stroke="none" /><path d="M753.1692,182.69999999999993 T753.1692,103.77359999999993 T673.7891999999999,106.40447999999992 T644.154,154.98806399999995 T753.1692,182.69999999999993 T753.1692,182.69999999999993 Z" fill="#FF3333" stroke="none" /></svg>